<svg id="visual" viewBox="0 0 1040 100" width="1040" height="100" xmlns="http://www.w3.org/2000/svg" xmlns:xlink="http://www.w3.org/1999/xlink" version="1.1"><path d="M0 83L21.7 82.3C43.3 81.7 86.7 80.3 130 80.3C173.3 80.3 216.7 81.7 260 81.5C303.3 81.3 346.7 79.7 390 73.3C433.3 67 476.7 56 520 53.7C563.3 51.3 606.7 57.7 650 63.7C693.3 69.7 736.7 75.3 780 76.3C823.3 77.3 866.7 73.7 910 72.2C953.3 70.7 996.7 71.3 1018.3 71.7L1040 72L1040 0L1018.3 0C996.7 0 953.3 0 910 0C866.7 0 823.3 0 780 0C736.7 0 693.3 0 650 0C606.7 0 563.3 0 520 0C476.7 0 433.3 0 390 0C346.7 0 303.3 0 260 0C216.7 0 173.3 0 130 0C86.7 0 43.3 0 21.7 0L0 0Z" fill="#fa7268"></path><path d="M0 41L21.7 40.7C43.3 40.3 86.7 39.7 130 42.7C173.3 45.7 216.7 52.3 260 53.3C303.3 54.3 346.7 49.7 390 47.3C433.3 45 476.7 45 520 46.3C563.3 47.7 606.7 50.3 650 48C693.3 45.7 736.7 38.3 780 35C823.3 31.7 866.7 32.3 910 32.8C953.3 33.3 996.7 33.7 1018.3 33.8L1040 34L1040 0L1018.3 0C996.7 0 953.3 0 910 0C866.7 0 823.3 0 780 0C736.7 0 693.3 0 650 0C606.7 0 563.3 0 520 0C476.7 0 433.3 0 390 0C346.7 0 303.3 0 260 0C216.7 0 173.3 0 130 0C86.7 0 43.3 0 21.7 0L0 0Z" fill="#eb5967"></path><path d="M0 20L21.7 24.2C43.3 28.3 86.7 36.7 130 40.7C173.3 44.7 216.7 44.3 260 43.5C303.3 42.7 346.7 41.3 390 37.5C433.3 33.7 476.7 27.3 520 27.3C563.3 27.3 606.7 33.7 650 34.3C693.3 35 736.7 30 780 29.8C823.3 29.7 866.7 34.3 910 37.5C953.3 40.7 996.7 42.3 1018.3 43.2L1040 44L1040 0L1018.3 0C996.7 0 953.3 0 910 0C866.7 0 823.3 0 780 0C736.7 0 693.3 0 650 0C606.7 0 563.3 0 520 0C476.7 0 433.3 0 390 0C346.7 0 303.3 0 260 0C216.7 0 173.3 0 130 0C86.7 0 43.3 0 21.7 0L0 0Z" fill="#da3f67"></path><path d="M0 26L21.7 23.3C43.3 20.7 86.7 15.3 130 15C173.3 14.7 216.7 19.3 260 22C303.3 24.7 346.7 25.3 390 24.5C433.3 23.7 476.7 21.3 520 21.3C563.3 21.3 606.7 23.7 650 25C693.3 26.3 736.7 26.7 780 24.5C823.3 22.3 866.7 17.7 910 15.7C953.3 13.7 996.7 14.3 1018.3 14.7L1040 15L1040 0L1018.3 0C996.7 0 953.3 0 910 0C866.7 0 823.3 0 780 0C736.7 0 693.3 0 650 0C606.7 0 563.3 0 520 0C476.7 0 433.3 0 390 0C346.7 0 303.3 0 260 0C216.7 0 173.3 0 130 0C86.7 0 43.3 0 21.7 0L0 0Z" fill="#c62368"></path></svg>