<svg id="visual" viewBox="0 0 450 200" width="450" height="200" xmlns="http://www.w3.org/2000/svg" xmlns:xlink="http://www.w3.org/1999/xlink" version="1.1"><path d="M0 121L12.5 121.8C25 122.7 50 124.3 75 122C100 119.7 125 113.3 150 114.7C175 116 200 125 225 125.8C250 126.7 275 119.3 300 114.5C325 109.7 350 107.3 375 107.8C400 108.3 425 111.7 437.5 113.3L450 115L450 0L437.5 0C425 0 400 0 375 0C350 0 325 0 300 0C275 0 250 0 225 0C200 0 175 0 150 0C125 0 100 0 75 0C50 0 25 0 12.5 0L0 0Z" fill="#fa7268"></path><path d="M0 86L12.5 86C25 86 50 86 75 87.2C100 88.3 125 90.7 150 90.8C175 91 200 89 225 91.8C250 94.7 275 102.3 300 105.5C325 108.7 350 107.3 375 105.2C400 103 425 100 437.5 98.5L450 97L450 0L437.5 0C425 0 400 0 375 0C350 0 325 0 300 0C275 0 250 0 225 0C200 0 175 0 150 0C125 0 100 0 75 0C50 0 25 0 12.5 0L0 0Z" fill="#ef5f67"></path><path d="M0 79L12.5 79.7C25 80.3 50 81.7 75 79.5C100 77.3 125 71.7 150 70.7C175 69.7 200 73.3 225 73.2C250 73 275 69 300 67.3C325 65.7 350 66.3 375 67.7C400 69 425 71 437.5 72L450 73L450 0L437.5 0C425 0 400 0 375 0C350 0 325 0 300 0C275 0 250 0 225 0C200 0 175 0 150 0C125 0 100 0 75 0C50 0 25 0 12.5 0L0 0Z" fill="#e34c67"></path><path d="M0 40L12.5 42.5C25 45 50 50 75 53.8C100 57.7 125 60.3 150 58.8C175 57.3 200 51.7 225 47.5C250 43.3 275 40.7 300 39.8C325 39 350 40 375 42.8C400 45.7 425 50.3 437.5 52.7L450 55L450 0L437.5 0C425 0 400 0 375 0C350 0 325 0 300 0C275 0 250 0 225 0C200 0 175 0 150 0C125 0 100 0 75 0C50 0 25 0 12.5 0L0 0Z" fill="#d53867"></path><path d="M0 22L12.5 24.5C25 27 50 32 75 32.5C100 33 125 29 150 29C175 29 200 33 225 35.2C250 37.3 275 37.7 300 36C325 34.3 350 30.7 375 29.8C400 29 425 31 437.5 32L450 33L450 0L437.5 0C425 0 400 0 375 0C350 0 325 0 300 0C275 0 250 0 225 0C200 0 175 0 150 0C125 0 100 0 75 0C50 0 25 0 12.5 0L0 0Z" fill="#c62368"></path></svg>